<?xml version="1.0" encoding="utf-8"?>
<!-- Generator: Adobe Illustrator 21.0.0, SVG Export Plug-In . SVG Version: 6.00 Build 0)  -->
<!DOCTYPE svg PUBLIC "-//W3C//DTD SVG 1.1//EN" "http://www.w3.org/Graphics/SVG/1.1/DTD/svg11.dtd">
<svg version="1.1" xmlns="http://www.w3.org/2000/svg" xmlns:xlink="http://www.w3.org/1999/xlink" x="0px" y="0px"
	 viewBox="0 0 250 250" style="enable-background:new 0 0 250 250;" xml:space="preserve">
<path d="M236.2,0H13.8C6.2,0,0,6.2,0,13.8v222.4c0,7.6,6.2,13.8,13.8,13.8h119.7v-96.8H101v-37.7h32.6V87.6
	c0-32.3,19.7-49.9,48.5-49.9c13.8,0,25.7,1,29.1,1.5V73l-20,0c-15.7,0-18.7,7.4-18.7,18.4v24.1h37.4l-4.9,37.7h-32.5V250h63.7
	c7.6,0,13.8-6.2,13.8-13.8V13.8C250,6.2,243.8,0,236.2,0z"/>
</svg>
